#!OML:ASF E:/inclinewalkrobotboard/Project1/Captureday1/Session1/subject1.ASF
:FULLY-SPECIFIED
:DEGREES
176
root 0 0 0 1.2708183089650857 -3.5885306077639934 1.798176986020426
lowerback 11.908377888494874 0.8825808064684453 -0.05811912614469633
upperback -4.31872339694505 1.1141338428989909 -0.5722849400469163
thorax -11.392750979764658 0.5107951583362181 -0.8264178704612328
lowerneck -6.37944133375205 1.5686028018412634 4.462444643967519
upperneck 18.411734694822915 3.0388240951048155 -8.042361837420632
head 6.81194543416827 1.1142406092600017 -3.1016662933890125
rclavicle 9.928365968164171E-16 -1.1973550550177134E-15
rhumerus 19.226716668884137 13.838637229575058 -48.45698403746886
rradius 71.63385488078707
rwrist 26.71663419160698
rhand -34.88527719599893 -56.610276815556205
rfingers 7.125020000000026
rthumb -8.019365814775837 -86.53083675206952
lclavicle 8.878194143433333E-16 -1.8254740395364213E-15
lhumerus 20.70149279356999 -12.175391618368316 44.99384006299101
lradius 69.69428391688086
lwrist -22.64997792766261
lhand -44.57731279175408 -69.79799874622142
lfingers 7.125020000000021
lthumb -17.40172109576637 -40.518380198172764
rfemur -24.640691951405326 -2.093223040490861 17.179344123700236
rtibia 53.81258501428568
rfoot -29.071034385164637 -17.03644011907002
rtoes -18.307507868927527
lfemur -26.312530589625393 2.48249639352796 -18.02126378543727
ltibia 54.19390212907511
lfoot -31.077368030889748 -3.4863241924933246
ltoes -19.916967749951706
177
root 0 0 0 1.2894973977958277 -3.5746292151419596 1.796536527272249
lowerback 11.908565055062335 0.8848437890646246 -0.061599758226902
upperback -4.328973097471554 1.116055535711743 -0.5753333926954076
thorax -11.404421700299766 0.5119011168635856 -0.8284850235899802
lowerneck -6.4437538962961405 1.5789921667951798 4.450399793315398
upperneck 18.448828449826124 3.0507117964370245 -8.009424160433737
head 6.834664782898287 1.1196243698906008 -3.0879654931636358
rclavicle 9.559120500078866E-16 -1.2019485875389508E-15
rhumerus 19.208157491819946 13.820278548486195 -48.467323094670355
rradius 71.62361965318104
rwrist 26.719829948744675
rhand -34.91387876801593 -56.646539464646686
rfingers 7.125020000000026
rthumb -8.047122699569917 -86.5660602330333
lclavicle 8.7572095631824E-16 -1.8293698364451336E-15
lhumerus 20.69577901992853 -12.160361421741134 45.007367153001255
lradius 69.68674669327979
lwrist -22.648080635821987
lhand -44.586079207336056 -69.85514340031578
lfingers 7.125020000000021
lthumb -17.41023283258229 -40.575728073630216
rfemur -24.639904339605728 -2.093086327220952 17.17974044145059
rtibia 53.811195242850594
rfoot -29.069561581892636 -17.038148114419993
rtoes -18.306675525130917
lfemur -26.32194228023306 2.4779524329136944 -18.022092582210924
ltibia 54.19395629608826
lfoot -31.07974090497219 -3.4923004002109552
ltoes -19.886833209502075
178
root 0 0 0 1.3013037079001897 -3.565627426292322 1.795571114841999
lowerback 11.908850556747039 0.8862809711730072 -0.06389498547263317
upperback -4.335364790971311 1.1172691076180448 -0.5772738079694826
thorax -11.411807444083374 0.5126053032727699 -0.8297486193748493
lowerneck -6.484817070324506 1.5855826143915717 4.442747756076737
upperneck 18.472674758073115 3.0582414932531226 -7.988544052471962
head 6.849232853273569 1.123027562221789 -3.0792790446674294
rclavicle 9.10985903859262E-16 -1.193411210145812E-15
rhumerus 19.19503332424167 13.806292759184974 -48.47061078632435
rradius 71.61570776572967
rwrist 26.724965883278617
rhand -34.93024634698288 -56.66870844896502
rfingers 7.125020000000026
rthumb -8.063119593774962 -86.58756315523857
lclavicle 8.173357742957856E-16 -1.8119402685211646E-15
lhumerus 20.693159742711345 -12.150508964735057 45.01796502913528
lradius 69.6821536842558
lwrist -22.646606687479878
lhand -44.5935056206351 -69.89652014050554
lfingers 7.1250200000000214
lthumb -17.417345052383713 -40.61621247686854
rfemur -24.639986558629225 -2.092541794444401 17.178852368783673
rtibia 53.80845602512766
rfoot -29.066464383640895 -17.03766333259505
rtoes -18.30528175041854
lfemur -26.32502615852796 2.475756730050347 -18.02207787237309
ltibia 54.19245939473778
lfoot -31.079381459274373 -3.493747140665764
ltoes -19.872300263496285
179
root 0 0 0 1.3128902220332863 -3.556552701224067 1.7946521203625054
lowerback 11.909234798184555 0.8876909412476398 -0.06618400067962057
upperback -4.3415306130377305 1.1184600799068591 -0.5791816633595908
thorax -11.419002116951035 0.5132983521866624 -0.8309655577853851
lowerneck -6.525222749830687 1.5919517001472305 4.435204900021541
upperneck 18.496135733271416 3.065476700941309 -7.968025224494531
head 6.863573317974477 1.1262960152649921 -3.070757435711485
rclavicle 8.829951241392049E-16 -1.1932989642087205E-15
rhumerus 19.181802087111137 13.792905738407935 -48.47661404879579
rradius 71.60806786147793
rwrist 26.72825480415398
rhand -34.94898271385232 -56.692856312447546
rfingers 7.125020000000026
rthumb -8.081360666298362 -86.6108913053126
lclavicle 7.925003991870744E-16 -1.808501439272418E-15
lhumerus 20.689566530606758 -12.14017811130561 45.02799541029341
lradius 69.67696171655525
lwrist -22.645131108125984
lhand -44.60017732901254 -69.93731486693748
lfingers 7.1250200000000214
lthumb -17.42378830332332 -40.656883441030566
rfemur -24.63979573546193 -2.0922262570084778 17.178619122980006
rtibia 53.80661038150226
rfoot -29.064380606966772 -17.038068161833145
rtoes -18.30427274234614
lfemur -26.3302127755842 2.4729217704840263 -18.022438332647443
ltibia 54.19166278046547
lfoot -31.08007745317012 -3.4969316168210813
ltoes -19.853673459189793
180
root 0 0 0 1.3233786186264216 -3.54810086240873 1.793862916904267
lowerback 11.909709012045553 0.8889699192902885 -0.06831382807516564
upperback -4.347013530257733 1.1195383271548431 -0.5809165085476167
thorax -11.425485133766543 0.5139291340065288 -0.8320375215452143
lowerneck -6.5620230187600805 1.5976631101681003 4.428339938753141
upperneck 18.51756193388622 3.071933275704879 -7.94940531263516
head 6.876660901830056 1.1292092332381074 -3.0630336050545774
rclavicle 8.521337409440407E-16 -1.1926854402190776E-15
rhumerus 19.169154816904875 13.780100093241078 -48.48223517795206
rradius 71.60080360211194
rwrist 26.731435313782626
rhand -34.966874872558485 -56.715964485308724
rfingers 7.125020000000026
rthumb -8.098785628753241 -86.63327483684313
lclavicle 7.65132777075014E-16 -1.8043824743413227E-15
lhumerus 20.68600093197076 -12.130027314364973 45.03794048312948
lradius 69.67186128079335
lwrist -22.64362456216854
lhand -44.60671970256465 -69.9770817544746
lfingers 7.1250200000000214
lthumb -17.430096749676522 -40.69643687079467
rfemur -24.639552204719866 -2.0919430970745916 17.178401513413245
rtibia 53.80503474186441
rfoot -29.06230205320599 -17.03839921575063
rtoes -18.303340813919153
lfemur -26.335356326246472 2.470145167606204 -18.02281565667993
ltibia 54.19110546870292
lfoot -31.08079317424502 -3.500113958340328
ltoes -19.83520266327993
